<?xml version="1.0" encoding="UTF-8"?>
<svg width="146" height="48" id="Capa_1" data-name="Capa 1" xmlns="http://www.w3.org/2000/svg" viewBox="0 0 146 48">
  <defs>
    <style>
      .cls-1 {
        fill: #f24068;
      }
    </style>
  </defs>
  <path class="cls-1" d="M23.46,20.1c-3.37,0-6.14,2.76-6.14,6.14v17.89h-6.14V13.97h6.14v4.56c1.79-2.75,4.89-4.57,8.4-4.57,7.7,0,10.53,8.71,10.53,15.08v15.08h-6.14v-15.08c0-4.47-2.37-8.93-6.65-8.94Z"/>
  <rect class="cls-1" x="40.95" y="13.97" width="6.14" height="30.16"/>
  <path class="cls-1" d="M51.88,10.19h6.14v3.78h7.57v6.14h-7.57s0,11.74,0,11.74c0,3.37,2.76,6.14,6.14,6.14h1.45v6.13h-1.45c-6.75,0-12.27-5.53-12.27-12.28V10.19Z"/>
  <rect class="cls-1" x="70.31" y="13.97" width="6.14" height="30.16"/>
  <path class="cls-1" d="M91.2,13.97h8.4V4.06h6.14v40.06h-6.14v-4.57c-1.79,2.75-4.89,4.57-8.4,4.57-6.86,0-10.53-7.13-10.53-14.55s3.34-15.6,10.53-15.6ZM99.59,20.1h-6.14c-4.45,0-6.65,4.79-6.65,9.47,0,4.28,2.54,8.41,6.65,8.41,3.37,0,6.14-2.76,6.14-6.14v-11.74Z"/>
  <path class="cls-1" d="M122.31,13.97c8.14,0,12.31,7.18,12.5,14.55.2,7.71-3.95,15.6-12.5,15.6s-12.7-7.89-12.5-15.6c.19-7.37,4.36-14.55,12.5-14.55ZM128.67,28.52c-.17-4.28-2.25-8.41-6.36-8.41s-6.19,4.13-6.36,8.41c-.15,3.99,1.52,9.47,6.36,9.47s6.51-5.49,6.36-9.47Z"/>
  <path class="cls-1" d="M42.96,8.86c1.98-1.97,4.55-3.25,7.2-4.08,5.39-1.66,11.48-1,16.45,1.68,2.47,1.32,4.69,3.04,6.46,5.15-4.24-2.05-8.32-3.86-12.91-4.62-5.8-.99-11.63-.19-17.2,1.87h0Z"/>
  <path class="cls-1" d="M44.26,11.61h-.49c0-1.56-1.26-2.82-2.82-2.82v-.49c1.56,0,2.82-1.26,2.82-2.82h.49c0,1.56,1.26,2.82,2.82,2.82v.49c-1.56,0-2.82,1.26-2.82,2.82Z"/>
</svg>